<svg viewBox="0 0 473 512" fill="none" xmlns="http://www.w3.org/2000/svg">
<g clip-path="url(#clip0_2_7)">
<path d="M452.5 131.5L238 14.5L23.5 131.5L238 255L452.5 131.5Z" fill="#D8670A"/>
<path d="M235.5 495.5V253.5L12.5 134.5V377.5L235.5 495.5Z" fill="#FFEB40"/>
<path d="M237 499V257L460 138V381L237 499Z" fill="white"/>
<path d="M266.188 10.375C267.525 11.097 268.861 11.819 270.198 12.541C279.032 17.32 287.795 22.224 296.517 27.205C303.618 31.251 310.793 35.146 318 39C326.186 43.378 334.313 47.837 342.376 52.437C351.434 57.605 360.595 62.561 369.801 67.458C377.765 71.696 385.665 76.026 393.499 80.5C402.03 85.37 410.644 90.067 419.312 94.687C429.936 100.353 440.546 106.027 450.999 112C452.085 112.61 453.171 113.219 454.29 113.848C463.664 119.394 469.453 126.703 472.999 137C473.529 140.358 473.551 143.642 473.522 147.037C473.53 148.008 473.536 148.979 473.544 149.98C473.565 153.213 473.557 156.446 473.549 159.679C473.558 162.006 473.569 164.332 473.581 166.659C473.608 172.965 473.608 179.271 473.603 185.576C473.6 191.515 473.613 197.453 473.624 203.391C473.645 215.873 473.641 228.355 473.629 240.836C473.618 252.235 473.642 263.633 473.68 275.031C473.719 286.756 473.735 298.482 473.728 310.207C473.724 316.781 473.729 323.355 473.757 329.93C473.782 336.115 473.777 342.299 473.751 348.484C473.747 350.748 473.753 353.012 473.77 355.275C473.917 377.09 473.916 377.09 466.999 387C466.319 388.072 465.638 389.145 464.938 390.25C457.161 398.579 444.356 403.573 434.484 408.874C427.518 412.616 420.617 416.455 413.749 420.375C405.134 425.284 396.438 430.024 387.688 434.687C378.693 439.482 369.733 444.325 360.836 449.301C354.635 452.769 348.41 456.195 342.188 459.625C339.678 461.009 337.166 462.393 334.656 463.777C334.024 464.126 333.393 464.474 332.742 464.832C328.337 467.262 323.933 469.694 319.531 472.129C307.26 478.913 294.98 485.679 282.635 492.326C277.726 494.971 272.837 497.642 267.973 500.367C266.991 500.914 266.008 501.461 264.996 502.024C263.153 503.052 261.312 504.087 259.478 505.132C250.113 510.334 240.405 513.911 229.63 511.461C223.815 509.738 218.627 507.534 213.312 504.625C212.504 504.191 211.695 503.758 210.863 503.311C203.573 499.376 196.378 495.274 189.182 491.17C181.523 486.818 173.778 482.636 165.999 478.5C156.446 473.419 146.981 468.207 137.583 462.844C130.447 458.785 123.239 454.871 115.999 451C107.814 446.622 99.6875 442.163 91.6255 437.563C83.1575 432.732 74.6055 428.078 65.9995 423.5C55.2955 417.804 44.6905 411.955 34.1675 405.93C30.9065 404.065 27.6265 402.255 24.3005 400.508C13.2595 394.668 4.97651 388.313 0.999512 376C-0.234488 371.255 -0.145503 366.602 -0.140503 361.734C-0.143503 360.798 -0.146506 359.861 -0.149506 358.897C-0.158506 355.757 -0.159499 352.617 -0.161499 349.478C-0.165499 347.227 -0.170514 344.977 -0.176514 342.726C-0.189514 336.61 -0.1955 330.495 -0.2005 324.379C-0.2035 320.557 -0.207487 316.735 -0.211487 312.913C-0.223487 302.323 -0.234488 291.733 -0.237488 281.143C-0.237488 280.465 -0.238495 279.788 -0.238495 279.09C-0.238495 278.411 -0.238495 277.732 -0.238495 277.033C-0.239495 275.657 -0.239509 274.281 -0.240509 272.906C-0.240509 272.223 -0.240509 271.541 -0.240509 270.838C-0.244509 259.787 -0.262492 248.736 -0.285492 237.686C-0.309492 226.329 -0.32151 214.972 -0.32251 203.615C-0.32351 197.243 -0.329504 190.871 -0.347504 184.5C-0.364504 178.504 -0.366513 172.508 -0.357513 166.512C-0.356513 164.315 -0.36149 162.118 -0.37149 159.921C-0.38349 156.914 -0.377493 153.908 -0.367493 150.901C-0.375493 150.038 -0.38351 149.176 -0.39151 148.287C-0.31151 138.265 2.62251 129.733 8.99951 122C15.6715 115.831 23.6165 111.652 31.5625 107.375C32.8485 106.675 34.1345 105.974 35.4195 105.273C38.6595 103.507 41.9045 101.751 45.1525 99.998C47.9705 98.476 50.7855 96.949 53.6015 95.422C56.6275 93.782 59.6545 92.143 62.6835 90.507C69.0825 87.048 75.4555 83.548 81.8085 80.005C90.0415 75.413 98.2985 70.864 106.555 66.312C107.818 65.616 109.081 64.919 110.344 64.223C110.976 63.874 111.607 63.526 112.258 63.168C116.663 60.738 121.067 58.306 125.469 55.871C137.847 49.028 150.243 42.226 162.688 35.504C168.372 32.431 174.043 29.333 179.688 26.187C180.373 25.806 181.058 25.424 181.764 25.031C185.325 23.047 188.888 21.063 192.449 19.078C195.668 17.284 198.89 15.494 202.113 13.707C203.395 12.995 204.678 12.282 205.958 11.567C229.247 -1.427 242.403 -2.634 266.188 10.375ZM230.031 29.766C229.307 30.155 228.583 30.544 227.837 30.945C227.065 31.375 226.294 31.806 225.499 32.25C224.673 32.698 223.847 33.146 222.996 33.608C220.324 35.061 217.662 36.53 214.999 38C213.236 38.961 211.473 39.921 209.708 40.879C206.046 42.868 202.388 44.865 198.734 46.867C194.856 48.99 190.97 51.099 187.078 53.195C177.245 58.493 167.454 63.845 157.749 69.375C148.649 74.561 139.446 79.539 130.199 84.457C121.3 89.194 112.497 94.072 103.745 99.075C98.4695 102.077 93.1615 105.008 87.8045 107.863C87.1875 108.192 86.5705 108.521 85.9345 108.86C82.9365 110.456 79.9345 112.044 76.9275 113.625C71.1535 116.683 65.4495 119.831 59.8515 123.199C59.3265 123.515 59.3265 123.515 56.6665 125.112C54.1085 126.923 52.5495 128.293 50.9995 131C50.9995 134.5 50.9995 134.5 51.9995 138C55.2355 140.956 58.6815 143.058 62.5425 145.102C63.6065 145.669 64.6705 146.236 65.7665 146.82C66.8955 147.416 68.0245 148.011 69.1875 148.625C71.5615 149.888 73.9325 151.155 76.3045 152.422C76.8825 152.73 76.8825 152.73 79.8035 154.287C83.8285 156.444 87.8265 158.646 91.8125 160.875C99.4655 165.149 107.135 169.393 114.812 173.625C115.428 173.964 116.043 174.304 116.678 174.654C116.987 174.824 116.988 174.824 118.555 175.688C119.818 176.385 121.081 177.081 122.344 177.777C122.976 178.126 123.607 178.474 124.258 178.832C128.663 181.262 133.067 183.694 137.469 186.129C139.917 187.482 142.365 188.835 144.812 190.187C145.415 190.521 146.019 190.854 146.641 191.197C155.841 196.279 165.074 201.294 174.327 206.278C181.083 209.929 187.769 213.692 194.438 217.5C206.443 224.349 218.684 230.728 230.999 237C231.64 237.404 232.28 237.808 232.94 238.224C236.848 239.696 240.18 238.354 243.874 236.76C244.859 236.242 245.844 235.725 246.859 235.191C247.965 234.615 249.071 234.038 250.21 233.444C251.39 232.817 252.57 232.19 253.749 231.563C254.977 230.917 256.206 230.271 257.435 229.626C266.162 225.031 274.806 220.294 283.401 215.457C288.961 212.341 294.544 209.267 300.125 206.187C300.436 206.015 300.436 206.015 302.014 205.144C310.444 200.49 318.897 195.881 327.375 191.313C336.054 186.634 344.648 181.823 353.216 176.945C360.421 172.856 367.695 168.907 374.999 165C383.551 160.423 392.056 155.774 400.499 151C401.412 150.484 402.326 149.969 403.266 149.437C405.851 147.969 408.425 146.485 410.999 145C411.927 144.478 412.855 143.956 413.811 143.418C414.712 142.9 415.615 142.382 416.543 141.848C417.356 141.386 418.167 140.925 419.004 140.449C420.999 139 421 139 422.812 135.437C423.038 131.286 422.765 130.091 419.999 127C413.93 122.682 407.179 119.32 400.626 115.813C398.465 114.649 396.305 113.485 394.145 112.32C393.091 111.752 392.038 111.184 390.952 110.599C387.057 108.489 383.181 106.346 379.312 104.187C371.51 99.837 363.697 95.506 355.876 91.187C355.254 90.844 354.631 90.501 353.991 90.147C344.458 84.886 334.895 79.681 325.314 74.506C319.628 71.432 313.958 68.334 308.312 65.187C307.612 64.797 306.911 64.407 306.189 64.005C304.666 63.156 303.144 62.308 301.621 61.459C291.763 55.971 281.888 50.517 271.995 45.095C269.948 43.971 267.903 42.844 265.858 41.716C262.428 39.825 258.989 37.948 255.546 36.08C254.233 35.365 252.924 34.647 251.617 33.924C249.794 32.916 247.962 31.925 246.128 30.937C245.088 30.369 244.048 29.801 242.975 29.215C238.274 27.295 234.483 27.324 230.031 29.766ZM28.9995 165C26.8995 169.034 26.7505 172.489 26.7525 176.994C26.7505 177.686 26.7475 178.379 26.7455 179.092C26.7395 181.407 26.7485 183.721 26.7575 186.036C26.7565 187.699 26.7545 189.362 26.7515 191.025C26.7465 195.545 26.7545 200.065 26.7645 204.584C26.7735 209.338 26.7715 214.092 26.7705 218.846C26.7715 226.851 26.7805 234.857 26.7945 242.863C26.8095 252.052 26.8155 261.242 26.8145 270.432C26.8135 280.275 26.8205 290.118 26.8295 299.961C26.8325 302.762 26.8325 305.564 26.8335 308.365C26.8365 319.911 26.8775 331.455 26.9995 343C27.0035 343.35 27.0035 343.35 27.0205 345.119C27.0655 349.501 27.1505 353.882 27.2605 358.263C27.2735 359.316 27.2875 360.369 27.3015 361.453C27.5295 368.362 27.5295 368.362 29.8975 371.575C32.2405 373.163 34.5675 374.634 37.0505 375.996C37.5485 376.272 37.5485 376.272 40.0695 377.668C41.1395 378.252 42.2095 378.836 43.3125 379.437C45.5945 380.697 47.8755 381.958 50.1565 383.219C51.3075 383.853 52.4585 384.487 53.6445 385.141C57.6325 387.351 61.5945 389.604 65.5545 391.864C76.2565 397.97 87.0785 403.832 97.9505 409.627C106.492 414.181 114.969 418.836 123.417 423.56C128.978 426.66 134.552 429.736 140.126 432.813C140.747 433.156 141.368 433.499 142.009 433.853C150.548 438.566 159.106 443.24 167.688 447.875C174.685 451.655 181.672 455.453 188.626 459.313C189.348 459.712 190.07 460.111 190.814 460.522C194.237 462.423 197.626 464.362 200.973 466.395C201.288 466.583 201.288 466.583 202.879 467.536C204.556 468.545 206.222 469.573 207.887 470.602C211.643 472.288 213.927 472.624 217.999 472C221.618 469.266 222.869 467.781 223.63 463.26C223.657 461.774 223.656 460.287 223.634 458.802C223.642 457.98 223.651 457.159 223.659 456.312C223.679 453.561 223.662 450.812 223.646 448.061C223.653 446.088 223.662 444.115 223.673 442.142C223.696 436.784 223.688 431.427 223.672 426.07C223.659 420.466 223.67 414.861 223.678 409.257C223.687 399.845 223.676 390.433 223.652 381.021C223.625 370.137 223.633 359.253 223.66 348.368C223.683 339.027 223.686 329.685 223.673 320.343C223.665 314.762 223.665 309.181 223.682 303.6C223.696 298.354 223.686 293.107 223.658 287.861C223.651 285.934 223.652 284.008 223.663 282.081C223.676 279.453 223.659 276.827 223.634 274.198C223.646 273.434 223.658 272.67 223.669 271.883C223.596 267.91 223.161 266.195 220.604 263.085C218.235 261.188 215.974 259.597 213.324 258.125C212.426 257.622 211.529 257.118 210.604 256.6C209.642 256.072 208.678 255.544 207.688 255C206.674 254.436 205.663 253.872 204.62 253.291C196.443 248.752 188.215 244.307 179.98 239.875C173.145 236.188 166.373 232.406 159.626 228.563C150.27 223.236 140.822 218.1 131.333 213.015C123.826 208.991 116.363 204.898 108.926 200.746C91.4115 190.969 73.8305 181.31 56.1715 171.797C53.0235 170.1 49.8865 168.387 46.7655 166.641C46.1575 166.303 45.5485 165.965 44.9215 165.617C43.4085 164.776 41.8995 163.925 40.3905 163.074C35.7555 160.991 32.8305 162.077 28.9995 165ZM429.876 164.875C429.261 165.19 428.647 165.504 428.014 165.828C421.711 169.089 415.518 172.549 409.329 176.02C402.966 179.586 396.576 183.104 390.188 186.625C387.678 188.009 385.166 189.393 382.656 190.777C382.024 191.126 381.393 191.474 380.742 191.833C376.336 194.262 371.933 196.694 367.531 199.129C365.083 200.482 362.635 201.835 360.188 203.187C359.585 203.521 358.981 203.854 358.359 204.197C350.138 208.738 341.893 213.231 333.626 217.687C325.947 221.826 318.329 226.056 310.75 230.375C302.054 235.331 293.271 240.107 284.438 244.813C253.292 261.417 253.291 261.417 250.999 266C249.715 276.776 249.846 287.659 249.839 298.492C249.835 300.309 249.83 302.126 249.824 303.942C249.811 308.832 249.804 313.722 249.799 318.612C249.796 321.67 249.792 324.729 249.788 327.787C249.774 337.369 249.765 346.95 249.762 356.532C249.757 367.574 249.738 378.616 249.71 389.658C249.688 398.215 249.679 406.771 249.678 415.328C249.677 420.431 249.67 425.535 249.652 430.638C249.635 435.428 249.634 440.217 249.643 445.006C249.644 446.764 249.638 448.521 249.628 450.278C249.616 452.675 249.623 455.072 249.633 457.47C249.625 458.165 249.617 458.861 249.609 459.578C249.664 465.046 251.178 468.179 254.999 472C262.751 473.118 267.786 469.925 274.375 466.125C275.44 465.529 276.506 464.932 277.604 464.318C279.756 463.112 281.904 461.899 284.048 460.679C287.23 458.869 290.43 457.092 293.634 455.323C295.761 454.147 297.883 452.965 300.004 451.781C306.369 448.234 312.746 444.709 319.125 441.187C319.746 440.844 320.369 440.501 321.009 440.147C330.542 434.886 340.105 429.681 349.686 424.506C356.082 421.048 362.453 417.549 368.803 414.007C375.214 410.432 381.641 406.885 388.07 403.342C398.574 397.552 409.073 391.754 419.562 385.937C420.637 385.343 421.712 384.749 422.819 384.136C425.885 382.434 428.943 380.72 431.999 379C433.112 378.379 434.225 377.758 435.371 377.118C435.913 376.81 435.912 376.81 438.652 375.254C439.63 374.702 440.608 374.149 441.616 373.58C443.999 372 443.999 372 445.999 369C446.315 366.816 446.315 366.816 446.406 364.209C446.425 363.709 446.426 363.709 446.522 361.177C446.537 360.623 446.537 360.623 446.613 357.816C446.632 357.223 446.631 357.223 446.725 354.223C447.191 337.729 447.184 321.227 447.201 304.728C447.204 301.918 447.208 299.107 447.212 296.297C447.226 287.47 447.234 278.643 447.238 269.816C447.243 259.68 447.262 249.544 447.29 239.408C447.312 231.519 447.321 223.629 447.322 215.74C447.323 211.048 447.33 206.355 447.348 201.663C447.365 197.27 447.367 192.878 447.358 188.486C447.357 186.877 447.361 185.269 447.371 183.66C447.383 181.463 447.377 179.267 447.367 177.07C447.368 175.842 447.37 174.614 447.371 173.349C446.957 169.615 445.934 167.201 443.999 164C439.013 160.461 434.876 162.31 429.876 164.875Z" fill="black"/>
<path d="M83.3438 288.125C93.3518 294.431 98.8028 302.763 102.633 313.828C103.207 317.223 103.058 320.56 103 324C98.5718 321.816 94.1578 319.604 89.7498 317.379C87.7718 316.387 85.7898 315.404 83.8048 314.426C80.3818 312.738 76.9717 311.027 73.5627 309.313C72.4427 308.766 71.3228 308.22 70.1678 307.657C69.1238 307.127 68.0798 306.597 67.0038 306.051C66.0638 305.583 65.1238 305.116 64.1548 304.634C61.9998 303 61.9998 303 61.1168 300.532C60.9408 296.717 62.1888 294.321 63.9998 291C69.8548 285.438 76.0617 284.63 83.3438 288.125Z" fill="black"/>
<path d="M153.25 328.687C161.435 335.538 167.49 344.185 169 354.999C169.038 357.333 169.046 359.667 169 361.999C159.13 357.131 149.331 352.13 139.562 347.062C138.442 346.482 137.322 345.903 136.168 345.305C135.124 344.762 134.08 344.219 133.004 343.66C132.064 343.171 131.123 342.683 130.155 342.179C128 340.999 128 340.999 127 339.999C127.152 335.511 127.411 332.24 130.188 328.625C137.187 322.092 145.764 323.338 153.25 328.687Z" fill="black"/>
<path d="M392.82 221.286C402.851 225.522 408.597 234.76 410.582 248.473C412.672 282.199 407.239 320.452 386.969 358.926C376.416 377.558 362.31 393.261 346.951 402.492C344.757 403.828 342.667 404.986 340.577 406.025C339.533 406.723 338.488 407.303 337.443 407.882C324.905 414.832 315.083 415.378 305.993 410.382C292.514 401.487 290.633 383.057 291.051 361.202C291.783 344.669 294.917 327.162 300.873 309.286C301.395 307.683 301.918 306.079 302.44 304.475C311.008 280.015 324.8 258.512 342.667 240.723C360.012 225.494 377.879 218.099 392.82 221.286Z" fill="#FBFBFB"/>
<path d="M392.82 221.286C402.851 225.522 408.597 234.76 410.582 248.473C412.672 282.199 407.239 320.452 386.969 358.926C376.416 377.558 362.31 393.261 346.951 402.492C344.757 403.828 342.667 404.986 340.577 406.025C339.533 406.723 338.488 407.303 337.443 407.882C324.905 414.832 315.083 415.378 305.993 410.382C292.514 401.487 290.633 383.057 291.051 361.202C291.783 344.669 294.917 327.162 300.873 309.286C301.395 307.683 301.918 306.079 302.44 304.475C311.008 280.015 324.8 258.512 342.667 240.723C360.012 225.494 377.879 218.099 392.82 221.286ZM322.815 278.01C316.755 290.329 311.739 302.307 308.187 314.789C307.874 315.799 307.874 315.799 306.515 320.614C300.246 349.535 298.574 377.341 309.232 395.445C314.77 401.574 322.815 402.969 332.219 400.623C349.041 392.852 362.206 382.328 375.266 362.665C392.193 335.124 399.403 302.695 400.343 276.37C400.656 258.754 400.447 243.937 389.685 236.164C379.028 230.364 369.833 233.669 355.414 241.781C342.772 249.506 331.696 262.932 322.815 278.01Z" fill="#070707"/>
<path d="M322.815 303.097C327.621 300.433 332.428 297.769 337.443 294.989C338.383 295.901 339.219 296.752 340.159 297.784C348.518 306.172 356.982 314.382 365.654 322.358C365.967 307.968 366.385 293.52 366.699 278.772C370.147 276.861 373.595 274.949 377.147 272.98C377.147 294.245 377.147 315.509 377.147 337.49C373.386 339.576 369.52 341.718 365.654 343.861C364.818 343.011 363.878 342.098 363.042 341.248C353.638 331.766 344.025 322.52 334.308 313.451C333.995 329.394 333.577 345.395 333.263 361.816C329.815 363.727 326.367 365.638 322.815 367.607C322.815 346.343 322.815 325.078 322.815 303.097Z" fill="#020202"/>
<mask id="path-8-inside-1_2_7" fill="white">
<path fill-rule="evenodd" clip-rule="evenodd" d="M165.505 139.107L141.774 125.952L222.879 110.092L210.289 130.255L165.505 139.107ZM229.834 108.135C230.172 107.591 229.92 106.988 229.188 106.582L229.183 106.579C228.443 106.171 227.35 106.033 226.371 106.226L135.922 123.914C135.046 124.085 134.391 124.493 134.187 124.997C133.981 125.497 134.258 126.024 134.915 126.388L162.895 141.897C163.636 142.308 164.735 142.445 165.72 142.251L213.339 132.839C214.11 132.686 214.714 132.349 214.979 131.92L229.834 108.135ZM236.196 178.291L212.618 165.222L253.973 100.364C254.322 99.8196 254.072 99.2107 253.333 98.8008L237.906 90.2496L257.035 79.6652L287.272 96.4256L245.745 161.186C245.396 161.73 245.644 162.34 246.383 162.75L255.308 167.697L236.196 178.291ZM261.046 166.64L251.418 161.304L292.946 96.5428C293.295 95.9989 293.046 95.3889 292.305 94.9779L258.944 76.4856C257.889 75.9005 256.176 75.8983 255.119 76.4821L232.164 89.1832C231.655 89.465 231.369 89.8445 231.372 90.2444C231.371 90.6421 231.657 91.023 232.166 91.3055L248.302 100.25L206.949 165.109C206.602 165.654 206.848 166.261 207.587 166.671L234.289 181.472C235.349 182.059 237.061 182.059 238.116 181.474L261.051 168.762C262.106 168.177 262.106 167.228 261.046 166.64Z"/>
</mask>
<path fill-rule="evenodd" clip-rule="evenodd" d="M165.505 139.107L141.774 125.952L222.879 110.092L210.289 130.255L165.505 139.107ZM229.834 108.135C230.172 107.591 229.92 106.988 229.188 106.582L229.183 106.579C228.443 106.171 227.35 106.033 226.371 106.226L135.922 123.914C135.046 124.085 134.391 124.493 134.187 124.997C133.981 125.497 134.258 126.024 134.915 126.388L162.895 141.897C163.636 142.308 164.735 142.445 165.72 142.251L213.339 132.839C214.11 132.686 214.714 132.349 214.979 131.92L229.834 108.135ZM236.196 178.291L212.618 165.222L253.973 100.364C254.322 99.8196 254.072 99.2107 253.333 98.8008L237.906 90.2496L257.035 79.6652L287.272 96.4256L245.745 161.186C245.396 161.73 245.644 162.34 246.383 162.75L255.308 167.697L236.196 178.291ZM261.046 166.64L251.418 161.304L292.946 96.5428C293.295 95.9989 293.046 95.3889 292.305 94.9779L258.944 76.4856C257.889 75.9005 256.176 75.8983 255.119 76.4821L232.164 89.1832C231.655 89.465 231.369 89.8445 231.372 90.2444C231.371 90.6421 231.657 91.023 232.166 91.3055L248.302 100.25L206.949 165.109C206.602 165.654 206.848 166.261 207.587 166.671L234.289 181.472C235.349 182.059 237.061 182.059 238.116 181.474L261.051 168.762C262.106 168.177 262.106 167.228 261.046 166.64Z" fill="white"/>
<path d="M165.505 139.107L148.013 148.803L159.076 154.935L173.814 152.022L165.505 139.107ZM141.774 125.952L133.544 113.021L96.5212 120.261L124.281 135.648L141.774 125.952ZM222.879 110.092L246.257 114.577L263.041 87.6973L214.649 97.1604L222.879 110.092ZM210.289 130.255L218.598 143.171L229.783 140.96L233.666 134.74L210.289 130.255ZM229.834 108.135L253.211 112.621L253.219 112.609L253.227 112.596L229.834 108.135ZM229.183 106.579L246.675 96.8826L246.652 96.87L246.63 96.8575L229.183 106.579ZM226.371 106.226L234.601 119.157L234.618 119.154L234.636 119.15L226.371 106.226ZM135.922 123.914L144.15 136.846L144.152 136.845L135.922 123.914ZM134.187 124.997L158.308 128.042L158.317 128.019L158.326 127.996L134.187 124.997ZM165.72 142.251L173.982 155.177L174.005 155.172L174.029 155.167L165.72 142.251ZM213.339 132.839L221.648 145.755L221.67 145.751L221.693 145.746L213.339 132.839ZM214.979 131.92L191.602 127.433L191.587 127.457L191.573 127.48L214.979 131.92ZM236.196 178.291L218.704 187.988L236.196 197.684L253.689 187.988L236.196 178.291ZM212.618 165.222L189.294 160.652L184.097 168.804L195.126 174.918L212.618 165.222ZM253.973 100.364L230.666 95.7679L230.658 95.781L230.649 95.794L253.973 100.364ZM237.906 90.2496L220.429 80.5447L202.905 90.2409L220.414 99.9458L237.906 90.2496ZM257.035 79.6652L274.528 69.969L257.051 60.2815L239.559 69.9603L257.035 79.6652ZM287.272 96.4256L310.581 101.018L315.816 92.8553L304.764 86.7294L287.272 96.4256ZM245.745 161.186L269.052 165.782L269.054 165.779L245.745 161.186ZM255.308 167.697L272.801 177.394L290.293 167.697L272.801 158.001L255.308 167.697ZM251.418 161.304L228.109 156.711L222.875 164.874L233.926 171L251.418 161.304ZM292.946 96.5428L269.638 91.9472L269.636 91.9502L292.946 96.5428ZM255.119 76.4821L237.658 66.7683L237.651 66.7726L237.643 66.777L255.119 76.4821ZM232.164 89.1832L214.687 79.4781L214.679 79.4825L214.671 79.487L232.164 89.1832ZM231.372 90.2444L256.11 90.265L256.11 90.2285L256.109 90.1921L231.372 90.2444ZM248.302 100.25L271.626 104.819L276.823 96.667L265.794 90.5534L248.302 100.25ZM206.949 165.109L183.624 160.54L183.622 160.544L206.949 165.109ZM165.505 139.107L182.997 129.41L159.266 116.256L141.774 125.952L124.281 135.648L148.013 148.803L165.505 139.107ZM141.774 125.952L150.004 138.884L231.109 123.023L222.879 110.092L214.649 97.1604L133.544 113.021L141.774 125.952ZM222.879 110.092L199.502 105.607L186.912 125.77L210.289 130.255L233.666 134.74L246.257 114.577L222.879 110.092ZM210.289 130.255L201.981 117.339L157.196 126.191L165.505 139.107L173.814 152.022L218.598 143.171L210.289 130.255ZM229.834 108.135L253.227 112.596C256.638 107.1 254.104 101.001 246.681 96.8857L229.188 106.582L211.696 116.278C205.736 112.975 203.706 108.083 206.442 103.675L229.834 108.135ZM229.188 106.582L246.681 96.8857L246.675 96.8826L229.183 106.579L211.69 116.275L211.696 116.278L229.188 106.582ZM229.183 106.579L246.63 96.8575C239.193 92.7564 228.118 91.3341 218.106 93.3013L226.371 106.226L234.636 119.15C226.582 120.733 217.694 119.586 211.736 116.3L229.183 106.579ZM226.371 106.226L218.141 93.2946L127.692 110.983L135.922 123.914L144.152 136.845L234.601 119.157L226.371 106.226ZM135.922 123.914L127.694 110.982C118.801 112.721 112.12 116.875 110.048 121.998L134.187 124.997L158.326 127.996C156.662 132.112 151.291 135.45 144.15 136.846L135.922 123.914ZM134.187 124.997L110.066 121.952C107.956 127.089 110.805 132.416 117.423 136.084L134.915 126.388L152.407 116.692C157.711 119.632 160.006 123.906 158.308 128.042L134.187 124.997ZM134.915 126.388L117.423 136.084L145.403 151.594L162.895 141.897L180.387 132.201L152.407 116.692L134.915 126.388ZM162.895 141.897L145.403 151.594C152.906 155.753 164.031 157.131 173.982 155.177L165.72 142.251L157.458 129.326C165.439 127.759 174.367 128.864 180.387 132.201L162.895 141.897ZM165.72 142.251L174.029 155.167L221.648 145.755L213.339 132.839L205.03 119.923L157.411 129.335L165.72 142.251ZM213.339 132.839L221.693 145.746C229.463 144.201 235.658 140.776 238.384 136.359L214.979 131.92L191.573 127.48C193.77 123.922 198.757 121.171 204.985 119.932L213.339 132.839ZM214.979 131.92L238.355 136.406L253.211 112.621L229.834 108.135L206.458 103.649L191.602 127.433L214.979 131.92ZM236.196 178.291L253.689 168.595L230.111 155.526L212.618 165.222L195.126 174.918L218.704 187.988L236.196 178.291ZM212.618 165.222L235.942 169.791L277.297 104.933L253.973 100.364L230.649 95.794L189.294 160.652L212.618 165.222ZM253.973 100.364L277.281 104.959C280.851 99.3946 278.27 93.2316 270.825 89.1046L253.333 98.8008L235.84 108.497C229.874 105.19 227.793 100.245 230.666 95.7679L253.973 100.364ZM253.333 98.8008L270.825 89.1046L255.398 80.5534L237.906 90.2496L220.414 99.9458L235.84 108.497L253.333 98.8008ZM237.906 90.2496L255.383 99.9546L274.512 89.3701L257.035 79.6652L239.559 69.9603L220.429 80.5447L237.906 90.2496ZM257.035 79.6652L239.543 89.3614L269.78 106.122L287.272 96.4256L304.764 86.7294L274.528 69.969L257.035 79.6652ZM287.272 96.4256L263.963 91.8331L222.435 156.594L245.745 161.186L269.054 165.779L310.581 101.018L287.272 96.4256ZM245.745 161.186L222.437 156.591C218.881 162.132 221.414 168.302 228.891 172.446L246.383 162.75L263.876 153.054C269.873 156.379 271.91 161.328 269.052 165.782L245.745 161.186ZM246.383 162.75L228.891 172.446L237.816 177.394L255.308 167.697L272.801 158.001L263.876 153.054L246.383 162.75ZM255.308 167.697L237.816 158.001L218.704 168.595L236.196 178.291L253.689 187.988L272.801 177.394L255.308 167.697ZM261.046 166.64L278.539 156.944L268.911 151.607L251.418 161.304L233.926 171L243.554 176.337L261.046 166.64ZM251.418 161.304L274.728 165.896L316.255 101.135L292.946 96.5428L269.636 91.9502L228.109 156.711L251.418 161.304ZM292.946 96.5428L316.253 101.138C319.814 95.5896 317.266 89.4217 309.797 85.2817L292.305 94.9779L274.813 104.674C268.827 101.356 266.775 96.4082 269.638 91.9472L292.946 96.5428ZM292.305 94.9779L309.797 85.2817L276.436 66.7894L258.944 76.4856L241.452 86.1818L274.813 104.674L292.305 94.9779ZM258.944 76.4856L276.436 66.7894C265.764 60.8734 248.412 60.8289 237.658 66.7683L255.119 76.4821L272.58 86.1959C263.94 90.9678 250.013 90.9276 241.452 86.1818L258.944 76.4856ZM255.119 76.4821L237.643 66.777L214.687 79.4781L232.164 89.1832L249.64 98.8883L272.595 86.1872L255.119 76.4821ZM232.164 89.1832L214.671 79.487C209.561 82.3196 206.606 86.1946 206.634 90.2967L231.372 90.2444L256.109 90.1921C256.132 93.4943 253.749 96.6104 249.656 98.8794L232.164 89.1832ZM231.372 90.2444L206.634 90.2237C206.623 94.2975 209.557 98.1654 214.674 101.002L232.166 91.3055L249.658 81.6093C253.756 83.8807 256.119 86.9867 256.11 90.265L231.372 90.2444ZM232.166 91.3055L214.674 101.002L230.809 109.946L248.302 100.25L265.794 90.5534L249.658 81.6093L232.166 91.3055ZM248.302 100.25L224.977 95.6803L183.624 160.54L206.949 165.109L230.273 169.678L271.626 104.819L248.302 100.25ZM206.949 165.109L183.622 160.544C180.11 166.057 182.602 172.214 190.095 176.367L207.587 166.671L225.08 156.975C231.093 160.308 233.093 165.251 230.275 169.674L206.949 165.109ZM207.587 166.671L190.095 176.367L216.797 191.168L234.289 181.472L251.782 171.776L225.08 156.975L207.587 166.671ZM234.289 181.472L216.797 191.168C227.49 197.095 244.866 197.125 255.609 191.171L238.116 181.474L220.624 171.778C229.257 166.993 243.207 167.023 251.782 171.776L234.289 181.472ZM238.116 181.474L255.609 191.171L278.543 178.458L261.051 168.762L243.558 159.065L220.624 171.778L238.116 181.474ZM261.051 168.762L278.543 178.458C289.286 172.503 289.232 162.872 278.539 156.944L261.046 166.64L243.554 176.337C234.979 171.584 234.926 163.851 243.558 159.065L261.051 168.762Z" fill="white" mask="url(#path-8-inside-1_2_7)"/>
</g>
<defs>
<clipPath id="clip0_2_7">
<rect width="473" height="512" fill="white"/>
</clipPath>
</defs>
</svg>
